<svg version="1.1" id="Layer_1" xmlns="http://www.w3.org/2000/svg" xmlns:xlink="http://www.w3.org/1999/xlink" x="0px" y="0px"
	 width="100%" viewBox="0 0 976 976" enable-background="new 0 0 976 976" xml:space="preserve">
<path fill="#000000" opacity="1.000000" stroke="none" 
	d="
M382.004791,521.004883 
	C377.212433,523.107117 375.085419,528.544495 370.053314,530.789795 
	C369.030975,528.420532 370.823395,527.470642 371.912292,526.588013 
	C378.973236,520.865051 381.197266,511.296661 388.552368,505.814636 
	C389.826080,504.865295 389.524323,503.562012 388.645721,502.271454 
	C387.749084,500.954468 386.520660,499.682922 386.891571,497.892120 
	C387.971619,497.027863 388.809326,498.300598 389.792786,498.126007 
	C390.066376,496.562378 389.460052,495.435822 388.310211,494.622101 
	C381.874817,490.067749 375.416351,485.545990 368.976990,480.997223 
	C368.578094,480.715454 368.076447,480.354767 367.956879,479.935425 
	C365.882599,472.662506 357.914612,470.963440 354.220215,465.618378 
	C349.358612,458.584717 342.318542,454.222076 336.469391,448.456329 
	C334.012543,446.034485 329.978302,444.736237 328.447723,441.946838 
	C324.850189,435.390533 318.784637,431.275818 314.230530,425.729248 
	C311.475891,422.374268 308.285187,419.547852 304.084076,417.864655 
	C301.086548,416.663757 299.313385,413.902344 297.521423,411.221527 
	C294.542725,406.765320 291.053345,402.743500 285.717316,400.940216 
	C284.197815,400.426697 283.192596,399.312439 282.325745,398.101074 
	C272.111145,383.826874 259.327728,371.803833 247.822266,358.662018 
	C246.748459,357.435486 245.307205,356.432770 245.157562,354.654602 
	C245.922623,352.897736 247.828140,355.267334 248.651871,353.387817 
	C249.490692,350.584106 245.604095,349.344055 245.811829,346.163208 
	C248.754517,345.808960 249.621582,348.529724 251.403320,349.619720 
	C252.733734,350.433624 253.938507,352.457672 255.648849,350.697815 
	C257.535095,348.756989 255.485916,346.987946 254.349396,346.088043 
	C251.507095,343.837402 248.660004,341.748871 246.973190,338.033478 
	C250.674286,336.956268 251.932114,341.052765 255.019592,340.903717 
	C255.400818,337.959747 251.258286,337.544769 251.805069,334.348175 
	C255.368851,334.943298 257.211212,338.305908 260.160065,339.713989 
	C260.006378,330.973175 253.963669,325.545288 248.720688,319.727295 
	C251.270782,317.960876 252.510986,320.938141 255.058762,319.863464 
	C255.238708,315.987579 259.274353,312.226532 258.648926,308.489044 
	C257.910645,304.077179 255.794037,299.322754 252.325180,295.812561 
	C250.350433,293.814270 248.443954,291.836487 247.535355,288.885010 
	C253.047668,291.467285 256.681152,296.794647 262.536591,299.204803 
	C262.040985,297.116974 259.746735,296.454010 259.740540,293.464996 
	C265.708282,296.527710 269.224548,302.144958 274.737000,304.843201 
	C276.633179,304.031677 273.981567,302.296204 275.931641,301.321075 
	C279.189301,302.626770 282.714661,304.179718 286.562561,301.540344 
	C287.784912,300.701935 289.076080,302.718658 290.226440,303.625397 
	C296.413177,308.501892 299.957520,315.714661 305.660034,321.046204 
	C307.829468,323.074493 309.867188,325.089539 313.962921,326.637421 
	C309.181183,320.956757 305.230255,316.263062 301.279327,311.569366 
	C307.380646,313.123383 310.897583,317.883728 315.707367,321.017822 
	C303.229279,305.487366 290.751160,289.956940 278.212921,274.351685 
	C281.608398,274.069061 281.674286,274.114410 286.250183,278.578979 
	C288.607697,280.879150 290.625641,283.563751 293.865326,285.018951 
	C289.375305,276.968964 285.320190,268.667053 277.610901,262.545044 
	C280.911041,260.721069 282.859833,263.300201 285.566284,262.688385 
	C283.840118,259.959625 283.745880,257.032440 284.222198,253.931229 
	C286.656952,253.681915 287.747162,255.637375 289.069763,256.937592 
	C294.530731,262.306091 299.850555,267.817871 305.273315,273.225769 
	C306.991638,274.939392 308.454346,276.955078 311.620789,276.141205 
	C313.770813,275.588562 315.372162,277.613556 316.416809,279.190582 
	C318.788849,282.771637 322.103699,285.219971 325.724121,287.848267 
	C326.001770,287.998413 325.969788,287.964844 325.969788,287.964844 
	C331.489624,300.350616 341.400757,308.702484 351.958252,316.533295 
	C354.969177,318.766541 357.521057,321.618561 361.246033,325.081787 
	C357.862335,318.287964 353.307892,314.197083 348.926208,309.968628 
	C347.334717,308.432770 345.821442,306.955658 349.198303,305.688995 
	C346.460083,300.229431 340.729279,298.216797 336.891785,294.164368 
	C334.807373,291.963257 334.136566,290.198212 336.161804,287.468750 
	C339.293304,288.281250 341.596069,290.715027 343.667755,292.709717 
	C356.002686,304.586121 368.013763,316.799225 380.103973,328.928741 
	C381.031128,329.858887 381.889160,330.932312 382.500885,332.086670 
	C383.690918,334.332214 382.728638,335.227844 380.623657,334.722961 
	C380.261566,342.628845 386.977386,345.992401 390.781189,351.150787 
	C387.929779,353.533020 388.943634,358.582886 392.224762,360.771271 
	C403.377838,368.209900 412.285431,377.787628 419.818817,388.897919 
	C423.033020,393.638184 426.236298,399.043945 433.046295,400.141510 
	C435.214966,400.491028 437.195801,402.358704 438.467438,404.354675 
	C444.831360,414.343475 454.176758,421.714081 461.591583,430.779236 
	C462.541718,431.940918 463.663483,433.482086 467.097198,433.015167 
	C458.178040,420.593231 446.316559,411.691711 436.452454,399.218170 
	C441.930054,400.519867 445.572174,403.251923 448.278412,405.242920 
	C455.148438,410.297302 464.052582,412.584290 469.018860,420.508148 
	C472.142761,425.492371 474.750336,425.253204 478.017517,420.297455 
	C480.819794,416.046906 483.241089,411.890045 488.958679,411.120605 
	C490.568237,410.904022 491.205444,408.903687 491.990173,407.389740 
	C493.283234,404.895081 495.006836,402.708740 499.211609,402.394440 
	C496.150177,406.708740 495.146301,411.229828 490.899414,413.894073 
	C488.941040,415.122589 486.457916,416.408203 485.567230,419.597229 
	C479.862244,420.529846 479.122589,424.779297 477.704315,429.422272 
	C479.612213,429.479523 481.640747,429.539581 481.991119,433.192902 
	C484.046051,428.722839 487.752838,427.456146 489.005310,424.016693 
	C493.866364,421.466614 497.584290,417.499847 501.734711,413.178314 
	C502.333099,415.757263 502.883667,417.753082 500.799377,419.055115 
	C494.420685,423.039764 489.350861,428.424011 484.800232,434.386505 
	C497.361725,423.641479 509.808563,412.774231 521.261597,399.609131 
	C518.158813,400.633942 517.006348,403.599457 513.996765,403.729034 
	C513.576355,399.866486 517.690918,398.899902 518.753235,395.972046 
	C516.295044,395.724030 515.237732,398.971375 512.336243,398.368500 
	C512.866272,395.487549 515.655029,394.295166 517.173401,391.208862 
	C510.768402,392.820282 510.296814,400.304382 503.728577,401.873169 
	C506.366455,397.435669 508.917480,393.452209 511.709930,390.469360 
	C515.386719,386.541931 516.869080,379.790192 523.844116,379.220520 
	C524.535339,379.164093 525.107422,377.403290 525.698792,376.411987 
	C528.450378,371.799103 531.420715,367.439392 536.655212,365.215759 
	C538.389221,364.479095 539.220398,362.719788 540.356262,361.276306 
	C545.067261,355.289124 549.147461,348.428589 554.976807,343.799896 
	C561.345337,338.743134 566.705627,332.760681 572.822388,327.537567 
	C575.624756,325.144623 577.900269,322.377197 579.222534,318.772675 
	C580.288452,315.866669 582.934509,314.161865 585.509277,312.551392 
	C590.268372,309.574554 594.080994,305.732880 596.230896,300.445648 
	C596.891174,298.821777 598.091858,297.689331 599.449646,296.712463 
	C612.886658,287.045349 624.197754,274.968170 636.535400,264.055328 
	C638.481445,262.333984 640.567688,260.771057 642.364624,259.316650 
	C644.943970,260.585236 642.297485,262.378143 643.586975,263.533905 
	C646.530396,264.585419 647.616394,260.023590 650.813904,261.186859 
	C651.077942,265.498413 644.023987,266.442413 645.924744,271.682251 
	C652.212708,271.332489 653.101196,263.494812 658.968933,262.433746 
	C660.013123,266.130920 656.276001,267.154266 655.247620,269.849335 
	C658.690369,270.991302 659.395874,266.157532 662.710327,266.788177 
	C662.267700,270.357849 658.974304,272.029602 657.363403,275.024475 
	C666.134888,274.665375 671.787598,268.920380 677.450012,263.103149 
	C679.352356,266.373077 675.850830,267.549927 676.503174,270.087769 
	C680.070801,270.668427 683.601868,272.663391 687.044739,273.216217 
	C692.423035,274.079865 696.960449,270.235321 701.214478,267.063873 
	C703.422668,265.417633 704.931641,262.796356 708.303711,262.153839 
	C708.689880,265.361359 705.784241,266.251160 704.603577,268.157257 
	C703.434448,270.044769 699.656860,271.287750 703.347778,274.487762 
	C704.558472,275.537445 702.529175,277.091736 701.604065,278.159363 
	C698.273010,282.003113 694.859497,285.775391 691.457703,289.596497 
	C693.158081,291.013153 694.428406,288.910919 695.673218,290.121338 
	C695.765259,290.341034 696.069397,290.707397 695.985168,290.919983 
	C694.631470,294.337189 692.933472,297.591736 695.487244,301.358154 
	C696.379395,302.674011 694.575134,303.990448 693.665344,305.132690 
	C689.286133,310.631378 683.018799,314.037994 678.214844,319.066895 
	C676.291199,321.080597 674.367920,323.094666 671.416016,326.185516 
	C678.014038,323.366058 681.159790,318.113068 686.479797,315.301544 
	C687.483948,318.582153 684.084595,319.528595 684.092651,323.087952 
	C698.694153,314.539734 709.429077,302.009796 723.267151,293.457794 
	C722.022156,299.758057 716.193665,302.764069 712.992310,307.774506 
	C721.178345,304.351746 728.053223,299.011810 734.679688,292.871521 
	C736.328003,295.907379 733.770081,297.807739 734.212646,300.474854 
	C737.134827,299.455414 740.064331,297.988953 743.283936,299.400970 
	C743.814636,301.658813 741.853699,302.595795 740.678650,303.792877 
	C734.846130,309.734772 728.902161,315.567261 722.996887,321.437805 
	C722.406433,322.024780 721.416687,322.528503 721.279541,323.205933 
	C718.758728,335.663757 706.985474,339.459198 699.183777,346.962555 
	C693.904541,352.039978 688.703735,357.199127 683.490662,362.344849 
	C682.511841,363.311066 681.837219,364.430023 682.618042,365.895325 
	C684.749634,366.451630 685.514771,364.563171 686.813721,363.725922 
	C687.871094,363.044342 688.625305,361.522644 690.221130,362.338135 
	C694.077393,364.308594 694.581665,363.311523 693.296997,359.441376 
	C692.640198,357.462860 694.235779,355.970032 696.528381,356.580505 
	C699.561523,357.388123 700.590454,355.060974 701.175293,353.245605 
	C703.044739,347.442505 702.876831,347.390137 708.045105,350.402557 
	C708.573425,350.710510 709.119751,350.987549 709.810181,351.361511 
	C701.958313,363.255920 689.731384,371.149963 681.591064,384.079956 
	C688.291931,383.401672 689.980896,377.125702 694.948059,376.185364 
	C695.922363,378.615234 694.096008,379.493011 693.049683,380.585846 
	C685.331726,388.646820 677.554077,396.650635 669.784546,404.662201 
	C668.513794,405.972565 667.300903,407.403839 665.231506,407.426819 
	C661.662903,407.466492 659.640015,410.310852 658.471863,412.693665 
	C654.462830,420.871368 648.399475,426.848389 640.740845,431.420807 
	C638.670959,432.656647 637.302063,434.441925 635.901001,436.347687 
	C632.178040,441.411804 627.397034,445.261993 621.631897,448.550323 
	C621.346924,445.897003 622.796997,444.867035 623.924744,443.774078 
	C630.022095,437.864746 637.145752,432.716461 642.040222,425.949341 
	C646.735046,419.458313 652.187378,413.844879 657.384949,407.902527 
	C659.172302,405.859039 660.891663,404.028076 663.516663,403.036224 
	C665.770508,402.184601 666.993896,400.197784 668.019836,398.003662 
	C661.855347,396.561096 661.005371,404.326782 655.799377,404.611359 
	C655.202209,401.847870 658.893799,400.781860 657.829224,397.937897 
	C654.502258,396.625610 652.906982,399.495117 650.939392,401.164215 
	C648.295654,403.406799 646.503052,406.795074 641.842285,404.791504 
	C639.568970,403.814209 637.571350,405.490814 635.841187,407.914917 
	C628.294922,418.487579 619.365417,427.648712 608.342102,434.872437 
	C603.817078,437.837830 598.248901,440.640503 597.496582,447.512756 
	C597.217407,450.063385 594.803040,452.068420 592.512878,453.530121 
	C583.196777,459.475952 576.526245,468.452637 567.786133,475.071320 
	C566.156372,476.305511 564.787964,478.159760 565.308472,481.394958 
	C575.742737,471.682922 586.177002,461.970856 596.611267,452.258820 
	C596.349854,456.841461 593.793945,460.016510 591.918762,463.159088 
	C587.246948,470.988556 583.620544,479.645538 575.293518,485.168274 
	C570.021729,488.664734 566.236450,494.387177 561.726868,499.055573 
	C559.965271,500.879211 560.135376,502.577759 561.726685,504.306793 
	C566.640808,509.646057 571.072632,515.254944 577.165466,519.670471 
	C583.719543,524.420288 590.704956,529.527649 593.410706,538.034912 
	C593.646606,538.776489 594.208069,539.670532 594.862244,539.982849 
	C600.469360,542.660034 603.828796,547.848206 608.239868,551.845215 
	C615.250610,558.197998 620.306702,566.310181 628.496277,571.866699 
	C632.261108,574.421143 635.818054,579.095459 639.172546,582.979431 
	C649.087891,594.460022 662.263611,602.396240 671.932068,614.012024 
	C681.951050,626.048889 692.819824,637.284485 704.006348,648.198669 
	C710.783020,654.810364 717.826599,661.165100 724.768311,667.609436 
	C730.632812,673.053772 733.145508,680.716614 738.555176,686.515076 
	C728.135620,679.104370 717.029236,672.746460 708.212402,663.137024 
	C708.859375,664.090332 709.459045,665.080566 710.166504,665.986633 
	C710.882141,666.903076 711.673950,667.765869 712.485657,668.600403 
	C715.273621,671.466736 718.247070,674.170776 720.850037,677.194641 
	C724.920410,681.923401 732.233215,685.210449 727.623047,694.352478 
	C721.065186,694.822449 713.320618,696.937805 706.536560,690.751465 
	C709.074036,692.851074 711.661743,694.893616 714.132080,697.069458 
	C715.929260,698.652161 717.382202,700.567505 716.599060,703.151672 
	C716.269531,704.238892 714.985046,704.423157 714.029602,704.012146 
	C711.815796,703.059875 708.751465,704.154114 707.705994,700.356445 
	C706.590515,696.304138 704.276367,692.642395 699.472473,689.655273 
	C702.102051,694.452942 706.078735,697.150269 707.022949,701.585754 
	C707.916748,705.784668 705.017029,710.042908 700.119080,711.781067 
	C700.404846,715.051086 703.349304,717.512207 703.275818,720.916809 
	C703.169312,725.845459 698.400940,723.853882 696.042969,725.891663 
	C694.615356,727.958191 698.427490,731.633911 695.125977,732.809753 
	C691.888306,733.962891 690.722839,729.378418 687.658203,728.209961 
	C688.469238,730.591919 689.243774,732.726929 689.915894,734.893677 
	C690.315369,736.181396 690.609619,737.606506 689.383179,738.602966 
	C688.118225,739.630615 686.859009,738.817261 685.670471,738.228577 
	C684.194885,737.497925 682.734680,736.736267 680.545044,735.619263 
	C681.691895,741.737976 679.546814,743.643005 674.093384,741.769348 
	C671.519287,740.884949 670.025146,742.808533 669.135132,744.902649 
	C666.959900,750.020508 664.348755,753.999146 657.889771,754.844666 
	C655.571594,755.148132 652.970581,758.915222 651.870239,761.652832 
	C649.958191,766.410217 647.630737,765.170105 645.202148,762.806274 
	C637.087219,754.908081 629.014587,746.959595 621.138611,738.824402 
	C608.176025,725.435059 594.188904,713.021729 582.495911,698.420898 
	C581.565796,697.259399 580.515015,696.048401 580.058105,694.680725 
	C578.500732,690.019470 581.470825,688.907349 585.175354,688.895386 
	C585.878784,685.977661 581.963440,685.174072 582.807861,682.570312 
	C584.147705,681.063843 585.748230,683.012756 587.074036,682.105774 
	C586.181946,676.904236 585.352844,676.454956 577.801819,677.146301 
	C577.869568,677.617737 577.885620,678.097839 578.012451,678.546692 
	C578.486389,680.223694 580.146851,682.124390 578.143494,683.536804 
	C575.995483,685.051208 574.462524,683.030334 573.038513,681.728455 
	C566.870117,676.089172 566.108948,674.465515 567.263123,669.815002 
	C569.617371,669.294678 570.517029,671.942749 572.478149,672.259766 
	C575.710876,667.159729 574.845642,665.352356 568.088440,663.213135 
	C567.368958,664.646545 570.047913,665.677185 568.590515,667.232788 
	C566.271179,667.180969 565.172974,665.251587 563.937378,663.879456 
	C558.795837,658.169617 552.734192,653.297607 548.657104,646.593933 
	C547.105530,644.042847 544.856995,641.709106 540.561279,641.313843 
	C544.962280,652.039917 555.875671,656.934631 559.684021,667.469177 
	C555.786987,667.422668 553.936462,664.467957 552.701965,662.050842 
	C549.120605,655.039062 542.497803,650.660950 537.350708,645.377930 
	C531.567627,639.442261 525.537292,633.385132 519.206787,627.825317 
	C518.230896,626.968201 517.670471,625.580566 515.621094,627.216553 
	C513.689209,628.758789 512.468933,625.704529 510.934570,624.682129 
	C498.222290,616.210693 487.525055,605.407715 477.089844,594.556335 
	C474.054016,596.057251 472.367157,598.119202 470.470673,599.970398 
	C467.063843,603.295715 464.320129,607.484070 459.058014,608.433960 
	C456.557739,608.885315 456.697327,611.953613 455.149994,613.296143 
	C448.159515,619.361450 442.955872,627.291504 434.649811,632.070557 
	C431.721436,633.755371 429.665100,637.291992 427.770630,640.332092 
	C426.229706,642.804932 424.831848,644.636475 421.864868,645.822815 
	C419.498291,646.769104 417.898438,649.686035 416.027496,651.789795 
	C415.372345,652.526489 415.093109,653.657166 414.355225,654.251770 
	C402.656311,663.678894 394.966370,676.956665 383.437836,686.510681 
	C370.859070,696.935059 359.038849,708.184692 347.812103,719.996094 
	C340.247284,727.954834 332.802460,736.024841 325.006287,743.764404 
	C320.905090,747.835815 315.002747,749.228027 310.929260,753.560120 
	C311.383911,747.637085 318.106934,745.270996 318.684998,739.122437 
	C316.053101,739.612915 314.459015,741.213501 313.192535,742.742249 
	C310.198578,746.356079 306.709015,743.510132 303.493958,743.804932 
	C303.092926,743.841675 302.036896,742.394409 302.192261,741.957886 
	C303.637817,737.896606 300.743683,733.965576 302.043457,729.655701 
	C299.029907,729.122986 296.608368,733.742920 293.927521,731.200989 
	C291.469818,728.870544 294.385468,725.581787 293.555603,722.500549 
	C290.352875,720.922974 285.752838,720.661255 285.248047,715.694763 
	C282.349182,715.084656 280.633514,717.153809 278.450226,717.765930 
	C276.004761,718.451538 273.211823,718.716919 272.927368,715.576538 
	C272.500702,710.866211 270.278412,710.087463 266.329102,711.180359 
	C265.785126,711.330872 265.085602,710.919495 264.363861,710.745605 
	C263.279663,706.693604 267.765137,705.800842 268.678009,702.903442 
	C257.972443,705.937378 257.972443,705.937378 259.923615,696.520081 
	C255.238983,696.138428 253.484024,693.979736 255.373383,689.199646 
	C256.298767,686.858398 254.516205,685.009155 252.334473,684.154175 
	C246.889343,682.020386 243.065460,679.077148 242.229340,672.479797 
	C241.940033,670.197021 238.068344,667.746216 235.320251,666.557068 
	C232.005722,665.122864 232.371628,663.446289 233.667419,661.180237 
	C234.316986,660.044189 235.267853,659.044189 236.216965,658.121033 
	C255.323288,639.536377 273.608398,620.115479 293.246918,602.074829 
	C295.570221,599.940552 298.090118,597.996216 300.662018,596.164795 
	C302.452606,594.889771 304.591888,593.933105 306.680634,595.471008 
	C308.780457,597.017151 307.043335,598.755981 306.612335,600.418457 
	C306.499084,600.855286 306.649109,601.360291 306.694855,602.103882 
	C310.099213,602.149963 310.957642,597.922302 314.677582,597.665710 
	C315.413086,602.189758 311.260529,604.722961 310.683350,608.410095 
	C314.479095,607.040344 319.902618,599.702515 320.189087,595.710754 
	C320.357697,593.361572 322.240387,592.199524 324.091003,591.647400 
	C330.563690,589.716309 332.418335,588.318298 335.432251,582.118591 
	C333.030273,581.173401 332.368500,584.502686 330.354065,584.150635 
	C330.955048,578.418152 338.369537,572.478394 344.165863,573.514954 
	C342.949646,568.418640 346.340118,566.577209 349.873505,564.050171 
	C355.629272,559.933655 358.606659,552.985413 365.423157,548.526245 
	C359.504547,547.911194 358.127380,551.862061 355.296692,554.029419 
	C349.356934,558.577332 344.599243,564.369446 338.558563,568.675537 
	C336.095673,570.431152 334.003815,572.941345 330.434052,573.186035 
	C348.228882,556.633118 364.578094,538.741699 382.117462,521.119385 
	C386.906250,516.346558 391.969177,512.672852 394.843964,507.058380 
	C388.061218,509.448395 385.358826,515.521240 382.004791,521.004883 
M451.372406,609.285522 
	C445.342255,613.588440 441.090424,619.542175 436.342896,625.036316 
	C442.968018,621.029602 447.921173,615.431519 452.687866,608.849243 
	C455.362946,607.478271 457.450378,605.515564 458.892700,602.894714 
	C456.971649,599.737671 455.171967,600.564514 452.969116,602.531067 
	C450.732391,604.527832 452.340515,606.835876 451.372406,609.285522 
M595.805054,546.371094 
	C594.331909,543.723694 592.222351,541.611572 590.000732,539.616821 
	C588.980225,538.700500 587.774170,538.026123 586.471924,539.230896 
	C584.953857,540.635193 585.797974,541.928101 586.746460,543.157410 
	C587.571594,544.226807 588.576965,545.394836 589.996094,545.130310 
	C592.416077,544.679382 594.101562,546.110291 596.204468,547.647949 
	C600.362610,553.904358 606.330078,558.299072 612.208191,563.649170 
	C613.892517,566.541687 616.355713,568.759338 618.577332,571.202576 
	C619.909851,572.667969 622.164795,574.606567 620.235229,576.728760 
	C616.292664,581.065002 620.478027,582.752014 622.865845,583.987244 
	C624.590698,584.879395 626.574646,585.999451 629.188416,586.466980 
	C628.295959,583.659668 628.379822,581.533264 632.155945,583.608765 
	C634.258362,592.894592 641.803101,597.027100 648.891785,601.592529 
	C644.229919,594.492188 638.648560,588.247009 631.561523,582.490112 
	C625.657959,575.374207 619.173584,568.841248 611.797363,562.352783 
	C607.131165,556.617920 603.096680,550.230835 595.805054,546.371094 
M387.481232,483.600250 
	C385.353790,481.835327 383.226318,480.070404 380.315033,477.655151 
	C381.512939,480.681549 384.040009,481.929016 383.479645,484.572113 
	C380.260437,484.415619 379.317993,481.199097 376.144104,480.301453 
	C379.346558,485.905121 384.789978,488.001038 389.290588,493.124512 
	C388.310638,489.161865 383.481995,486.970245 388.546997,484.390564 
	C393.593842,485.807098 395.291382,491.964203 400.785217,492.896454 
	C396.461182,486.790131 391.212341,481.665161 385.490234,476.997711 
	C388.627014,481.255096 388.627014,481.255096 387.481232,483.600250 
M419.007477,632.620483 
	C411.707489,636.638062 411.153381,638.641357 415.521698,645.631470 
	C418.099243,642.283264 423.284790,641.408203 424.125793,635.797974 
	C420.883087,637.163269 420.264679,634.930176 419.007477,632.620483 
M493.225555,595.079956 
	C496.293060,597.318787 499.360596,599.557556 502.428101,601.796387 
	C499.409149,594.034119 493.205231,589.441467 487.616821,584.314636 
	C485.956268,582.791260 484.616302,583.553711 483.828949,585.658569 
	C487.795929,584.605347 489.233246,587.452759 490.736664,590.063049 
	C491.550293,591.475647 492.118774,593.029480 493.225555,595.079956 
M411.153931,650.293457 
	C412.500336,647.170166 409.658417,648.080139 409.015259,648.558105 
	C404.490570,651.920715 400.321533,655.674866 398.071289,661.110229 
	C403.384735,658.898560 406.717987,654.392517 411.153931,650.293457 
M392.621216,520.057556 
	C386.856720,525.916077 381.092255,531.774658 375.327789,537.633179 
	C382.525482,531.745605 388.727264,524.861084 396.205933,519.328735 
	C397.316040,518.507507 399.547333,516.749512 397.145691,514.551697 
	C394.813416,515.600952 394.941803,518.372864 392.621216,520.057556 
M332.529419,309.247406 
	C330.051392,305.092987 328.368225,300.006042 321.873901,300.147552 
	C323.757629,304.209015 326.663879,307.156006 329.621521,310.026917 
	C331.041504,311.405212 331.357513,311.263977 332.529419,309.247406 
M694.521423,338.675659 
	C690.435486,340.635895 687.463562,343.626556 684.982788,348.677979 
	C689.320923,346.753845 692.539062,345.252258 694.932251,342.465057 
	C695.921143,341.313416 697.781921,340.044861 694.521423,338.675659 
M497.536377,609.866028 
	C498.770172,610.726807 500.126434,611.129822 502.142792,611.022766 
	C498.802979,607.562317 496.535553,603.541443 491.436249,601.501160 
	C492.238525,605.514526 495.184998,607.080444 497.536377,609.866028 
M722.052734,311.811462 
	C721.203003,312.824249 720.068848,313.836029 721.678833,315.089539 
	C722.434998,315.678284 723.299072,315.500977 723.922852,314.861023 
	C725.463928,313.279938 724.080322,311.887787 724.590637,309.517548 
	C723.155579,310.764526 722.782227,311.088959 722.052734,311.811462 
M428.215393,632.412964 
	C431.077118,632.089661 431.998535,629.695984 433.479584,627.886841 
	C431.286682,628.906494 428.401154,629.007996 428.215393,632.412964 
z"/>
<path fill="#000000" opacity="1.000000" stroke="none" 
	d="
M525.105469,645.893188 
	C521.605408,642.214478 518.354919,638.786316 514.444336,634.662109 
	C517.869019,634.162659 518.929321,635.899963 520.171082,636.948425 
	C531.349182,646.386658 542.535156,655.826965 552.267517,666.815674 
	C556.271667,671.336792 561.137329,674.861267 565.732117,678.695618 
	C568.863220,681.308594 570.298767,684.561096 570.613037,688.379822 
	C570.163879,688.765503 569.714722,689.151184 569.265564,689.536804 
	C554.628723,675.072449 539.991821,660.608093 525.105469,645.893188 
z"/>
<path fill="#000000" opacity="1.000000" stroke="none" 
	d="
M353.811798,541.827881 
	C346.288666,551.663147 337.597260,559.919434 329.025299,568.289673 
	C325.684753,571.551636 322.639191,575.063904 319.809174,578.793701 
	C317.048157,582.432495 313.445496,584.901978 308.342010,584.923523 
	C324.090240,567.174377 340.819305,550.447327 358.297699,534.379456 
	C358.249695,537.707703 355.781433,539.407776 353.811798,541.827881 
z"/>
<path fill="#000000" opacity="1.000000" stroke="none" 
	d="
M390.069702,332.073364 
	C395.745544,338.548004 404.573120,341.083679 409.932281,347.958344 
	C410.131561,348.213989 410.526215,348.334595 410.683014,348.603668 
	C416.338684,358.310486 426.370117,364.141754 432.574982,373.353638 
	C432.913483,373.856201 433.028595,374.509277 433.513184,375.798645 
	C429.326691,374.353149 427.243408,371.343506 424.880951,368.858887 
	C419.737396,363.449341 415.155579,356.776093 409.236572,353.018372 
	C402.487946,348.733948 397.644867,342.929718 391.848358,337.951111 
	C390.408447,336.714386 388.200409,335.208618 389.746887,332.262543 
	C389.977997,332.005707 390.069702,332.073364 390.069702,332.073364 
z"/>
<path fill="#000000" opacity="1.000000" stroke="none" 
	d="
M594.055664,466.807678 
	C594.337585,464.898926 595.417786,463.858856 596.492432,462.802948 
	C609.553772,449.969299 622.594177,437.114166 635.693115,424.319061 
	C636.917297,423.123383 638.040222,421.497131 640.195251,421.607880 
	C640.896912,423.590027 639.252502,424.341980 638.303040,425.298798 
	C625.054932,438.650208 611.787476,451.982758 598.446289,465.241028 
	C597.355713,466.324860 596.459167,468.619171 594.055664,466.807678 
z"/>
<path fill="#000000" opacity="1.000000" stroke="none" 
	d="
M420.479675,372.513275 
	C415.592529,367.299805 410.301331,362.905090 406.858063,356.852936 
	C422.825714,371.398590 438.754822,385.938171 453.573883,402.435364 
	C450.062408,402.555450 450.061920,402.555939 441.686676,394.155914 
	C438.161316,390.620117 434.616760,387.103180 431.120636,383.538696 
	C427.626190,379.975983 424.181366,376.364563 420.479675,372.513275 
z"/>
<path fill="#000000" opacity="1.000000" stroke="none" 
	d="
M389.929749,331.975372 
	C382.283813,326.371765 373.666962,321.964447 369.346954,312.766388 
	C368.263184,310.458862 365.975739,308.715881 364.237610,306.716797 
	C363.073975,305.378510 361.462708,304.341156 361.137421,302.410370 
	C362.817108,301.069092 363.764099,302.389465 364.614563,303.218597 
	C373.293121,311.679565 381.946320,320.167114 390.527191,328.726837 
	C391.383667,329.581238 393.800415,330.904236 390.364380,332.107544 
	C390.069702,332.073364 389.977997,332.005707 389.929749,331.975372 
z"/>
<path fill="#000000" opacity="1.000000" stroke="none" 
	d="
M321.311768,590.377686 
	C320.339935,591.330078 319.694550,592.116150 318.894653,592.685059 
	C317.236938,593.864014 315.300110,595.085999 313.589569,593.141174 
	C311.877563,591.194702 313.746368,589.718445 315.041992,588.590881 
	C318.463379,585.613220 321.079132,581.035767 327.153992,581.810059 
	C326.405487,585.735840 323.422638,587.553345 321.311768,590.377686 
z"/>
<path fill="#000000" opacity="1.000000" stroke="none" 
	d="
M511.840759,402.520905 
	C510.264252,411.724030 503.007172,409.198364 496.801208,410.354431 
	C498.161285,406.378510 499.441589,403.362366 504.066132,404.719818 
	C505.705536,405.201080 506.419159,403.872131 507.473602,403.194855 
	C508.776886,402.357574 509.854279,400.595551 511.840759,402.520905 
z"/>
<path fill="#000000" opacity="1.000000" stroke="none" 
	d="
M642.288940,412.213867 
	C639.181396,418.004974 634.482117,421.794128 628.854187,425.725006 
	C628.564392,424.082153 628.151550,423.234955 628.400879,422.931244 
	C632.050537,418.485168 636.272034,414.638245 641.022095,411.391815 
	C641.215881,411.259338 641.817566,411.723480 642.288940,412.213867 
z"/>
<path fill="#000000" opacity="1.000000" stroke="none" 
	d="
M326.018677,288.014282 
	C324.998993,285.774414 324.125031,283.423370 322.877045,281.291351 
	C321.768494,279.397461 319.425354,278.251770 319.077057,274.450958 
	C325.406403,278.745453 329.493011,283.488434 332.255981,289.795898 
	C329.628906,290.867493 328.559143,288.105316 326.306091,288.033936 
	C325.969788,287.964844 326.001770,287.998413 326.018677,288.014282 
z"/>
<path fill="#000000" opacity="1.000000" stroke="none" 
	d="
M701.707275,300.748718 
	C705.204956,297.605927 707.834351,293.936401 712.231018,291.847229 
	C711.703552,295.853943 702.675354,305.162750 698.081604,306.692657 
	C697.833801,303.852234 700.089233,302.674774 701.707275,300.748718 
z"/>
<path fill="#000000" opacity="1.000000" stroke="none" 
	d="
M401.131256,361.860352 
	C399.339722,359.541656 396.901703,358.113586 396.278198,355.293030 
	C400.554962,355.500641 407.691986,362.470306 409.602905,368.411591 
	C405.067902,368.434631 404.232697,363.895020 401.131256,361.860352 
z"/>
<path fill="#000000" opacity="1.000000" stroke="none" 
	d="
M711.097107,340.967651 
	C714.505371,338.559235 717.657715,336.400909 720.809998,334.242584 
	C721.084839,334.608032 721.359741,334.973480 721.634583,335.338898 
	C717.984802,340.417267 713.640930,344.713165 707.089905,347.169830 
	C706.691467,343.871857 709.693115,343.104340 711.097107,340.967651 
z"/>
<path fill="#000000" opacity="1.000000" stroke="none" 
	d="
M280.393341,285.689087 
	C284.504913,289.873383 288.354797,293.831512 292.204712,297.789673 
	C291.825256,298.166046 291.445801,298.542419 291.066345,298.918762 
	C284.808960,296.106689 281.455170,290.165710 276.981720,285.448975 
	C278.554840,283.470917 279.267090,284.945953 280.393341,285.689087 
z"/>
<path fill="#000000" opacity="1.000000" stroke="none" 
	d="
M611.353455,438.273254 
	C614.604248,436.103271 616.901611,433.066101 622.002319,431.744873 
	C618.614929,436.992096 614.784912,440.194061 611.128113,443.441162 
	C609.907410,444.525146 608.403564,443.359833 608.839355,441.660767 
	C609.138489,440.494476 610.315186,439.553284 611.353455,438.273254 
z"/>
<path fill="#000000" opacity="1.000000" stroke="none" 
	d="
M425.110718,386.978333 
	C422.376465,384.106354 419.659607,381.645203 418.853668,377.733734 
	C422.865417,380.036713 426.330994,382.877502 428.649109,386.836090 
	C427.322571,388.649597 426.352203,387.896118 425.110718,386.978333 
z"/>
</svg>