<?xml version="1.0" encoding="utf-8"?>
<!-- Generator: Adobe Illustrator 25.3.1, SVG Export Plug-In . SVG Version: 6.00 Build 0)  -->
<svg version="1.1" id="Шар_1" xmlns="http://www.w3.org/2000/svg" xmlns:xlink="http://www.w3.org/1999/xlink" x="0px" y="0px"
	 viewBox="0 0 528.9 77.3" style="enable-background:new 0 0 528.9 77.3;" xml:space="preserve">
<style type="text/css">
	.st0{fill-rule:evenodd;clip-rule:evenodd;fill:#0336EE;}
	.st1{fill-rule:evenodd;clip-rule:evenodd;fill:#FFFFFF;}
	.st2{fill-rule:evenodd;clip-rule:evenodd;fill:#9624BB;}
	.st3{fill-rule:evenodd;clip-rule:evenodd;fill:#03AAED;}
</style>
<g>
	<g>
		<rect class="st0" width="137.4" height="77.3"/>
		<path class="st1" d="M74.7,37.1c5.9,0,8.8-1.9,8.8-5.8s-2.9-5.7-8.8-5.7H48.8v11.5H74.7z M39.2,17.8h36.7c11.2,0,17.4,5,17.4,13.4
			c0,7.2-4.7,12-12.6,13.2l18,15.1H84.8L67.9,44.9H48.8v14.6h-9.6C39.2,59.5,39.2,17.8,39.2,17.8z"/>
	</g>
	<g>
		<rect x="302.3" class="st2" width="137.4" height="77.3"/>
		<polygon class="st1" points="345.1,17.8 354.7,17.8 354.7,51.3 397.1,51.3 397.1,59.5 345.1,59.5 		"/>
	</g>
	<g>
		<rect x="151.2" class="st3" width="137.3" height="77.3"/>
		<polygon class="st1" points="215.1,26 190.9,26 190.9,17.8 248.8,17.8 248.8,26 224.6,26 224.6,59.5 215.1,59.5 		"/>
	</g>
</g>
<polygon points="528.9,33.6 528.9,43.1 506.6,43.1 506.6,60.8 495.9,60.8 495.9,43.1 473.6,43.1 473.6,33.6 495.9,33.6 495.9,16.4 
	506.6,16.4 506.6,33.6 "/>
</svg>
