<?xml version="1.0" encoding="utf-8"?>
<!-- Generator: Adobe Illustrator 26.0.3, SVG Export Plug-In . SVG Version: 6.00 Build 0)  -->
<svg version="1.0" id="Layer_1" xmlns="http://www.w3.org/2000/svg" xmlns:xlink="http://www.w3.org/1999/xlink" x="0px" y="0px"
	 viewBox="0 0 621.4 434.5" style="enable-background:new 0 0 621.4 434.5;" xml:space="preserve">
<style type="text/css">
	.st0{fill:#EC33EC;}
	.st1{fill:#6E0CED;}
	.st2{fill:#00AF2C;}
	.st3{fill:#FFFFFF;}
</style>
<path style="fill:#FFFFFF;" class="st0" d="M198.9,181H70v72.5h128.9V181z"/>
<path style="fill:#FFFFFF;" class="st1" d="M340.6,181H211.8v72.5h128.9V181z"/>
<path style="fill:#FFFFFF;" class="st2" d="M482.4,181H353.5v72.5h128.9V181z"/>
<path style="fill:#000000FF;" class="st3" d="M106.8,197.7h34.3c10.5,0,16.3,4.7,16.3,12.6c0,6.8-4.4,11.3-11.8,12.4l16.8,14.2h-12.9l-15.8-13.7h-18v13.7
	h-8.9V197.7z M140,215.8c5.5,0,8.2-1.8,8.2-5.4s-2.7-5.4-8.2-5.4h-24.2v10.8L140,215.8L140,215.8z"/>
<polygon style="fill:#000000FF;" class="st3" points="393.7,197.7 402.6,197.7 402.6,229.1 442.4,229.1 442.4,236.8 393.7,236.8 "/>
<polygon style="fill:#000000FF;" class="st3" points="271.7,205.4 249,205.4 249,197.7 303.3,197.7 303.3,205.4 280.6,205.4 280.6,236.8 271.7,236.8 "/>
<polygon style="fill:#FFFFFFFF;" points="522.7,197.6 522.7,212.8 502.7,212.8 502.7,221.6 522.7,221.6 522.7,236.9 531.4,236.9 531.4,221.6 551.4,221.6 
	551.4,212.8 531.4,212.8 531.4,197.6 "/>
</svg>
