<svg xmlns="http://www.w3.org/2000/svg" xmlns:xlink="http://www.w3.org/1999/xlink" version="1.1" id="Layer_1" x="0px" y="0px" style="enable-background:new 0 0 800 800;" xml:space="preserve" viewBox="15.15 53.78 769.7 692.43">
<g>
	<path d="M781.533,366.681l-8.075,1.425l-12.825,1.9h-6.65l-6.175-0.475l-2.85,2.375l-3.595,0.449l-1.156-0.924l-5.225-0.475   l-1.425-1.425l-1.425-0.475v-1.425h2.85l1.425-0.475l2.375-2.85l4.275-1.425l3.8-1.9l2.375-2.85l1.9-1.9l1.425-2.375l0.95-2.375   l2.375-0.475l2.375-2.85l-0.95-1.9v-2.375h0.95l0.475-0.475l0.95-1.9h-1.425l-2.375,0.95v0.068l-3.483,1.492h-0.506l-8.075,1.425   l-12.825,1.9h-6.65l-6.175-0.475l-2.85,2.375l-3.595,0.449l-1.126-0.901l1.584-0.634l6.175-4.275l4.275-3.325l3.325-3.8l5.225-2.85   l2.375-2.375l-3.8,0.475h-4.275l-4.047,1.619l0.058-0.058l1.425-2.375l0.95-2.375l2.375-0.475l2.375-2.85l-0.95-1.9v-2.375h0.95   l0.475-0.475l0.95-1.9h-0.451l3.489-2.035l5.225-2.85l4.275-2.85l5.225-3.325l4.275-2.85l6.65-1.9l6.175-2.375v-0.95h-1.9   l-7.125,2.375l-8.55,2.375l-6.175,2.375l-8.075,3.8l-7.6,3.8l-7.125,2.375l0.475-1.425l2.85-3.325l3.8-5.225l9.5-7.6l-1.425-0.475   l-10.45,4.75l-5.225,3.325l-2.375,3.325l-5.225,3.325l-7.125,4.75l-3.8,0.475l-3.325,0.475l-5.225,1.425l-1.553,0.194l3.74-2.909   l3.325-3.8l5.225-2.85l2.375-2.375l-3.489,0.436l7.003-2.472l2.26-1.071l0.877-0.219l-0.243-0.081l3.335-1.58l0.708,0.236l1.9-0.95   l-0.72-0.18l0.909-0.43l7.6-3.8l1.9-1.9h-2.375l-0.475,0.475l-2.375,1.425l-5.225-0.475l-3.8,0.95h-3.8v-1.425l4.275-2.85   l15.201-7.6l2.85-2.375l2.375-0.95l3.325-1.425l0.475-2.85h1.9l1.425-0.95l0.475-2.375h-3.8l-0.95,0.475l0.475,1.9l-2.375,0.475   l-0.285,0.285l-3.99,1.14l-2.375,1.425l-2.85,0.475l0.95-0.95l1.367-0.513l2.719-0.777l6.175-2.375v-0.95h-1.9l-6.719,2.24h-4.493   l-4.275,0.95l1.425-2.375l4.275-2.375l0.475-1.425l-0.95-0.475l-0.475-2.375l1.425-1.425l6.65-3.8l2.375-1.9l2.85-0.95l0.95-0.95   l2.85-1.425l0.95-1.9l-2.375,0.475l-7.6,3.8l-9.975,3.325l-4.75-0.475l0.95-2.375l3.8-3.325l10.45-6.65l2.375-2.375l3.8-2.375   l6.65-3.325l7.6-3.325l13.3-4.75l5.7-2.375l3.8-2.85l4.275-1.425l0.475-2.375h-3.325l-3.325,0.95l-12.35,5.225l-10.45,3.8   l-11.875,4.75l-12.826,4.75l-11.875,5.225l-2.726,1.422l0.162-0.812h-3.8l-0.95,0.475l0.475,1.9l-2.375,0.475l-0.285,0.285   l-3.99,1.14l-2.375,1.425l-2.85,0.475l0.95-0.95l3.8-1.425v-0.95h-3.445l7.434-3.935l6.175-3.325l4.75-1.9l4.75-1.425l11.4-4.275   l5.225-1.425l0.95-0.95l6.175-3.8l6.65-3.8l1.9-1.9l0.95-2.85l1.425-0.475l4.75-2.375l14.251-5.7l4.75-3.325l0.95-2.375h-2.85   l-4.275,1.425l-20.426,6.65l-12.826,5.225l-10.925,3.8l-4.038,2.019l-0.238-0.119l-2.058,1.267l-1.267,0.633l-1.086,0.814   l-1.764,1.086l0.219,0.073l-1.169,0.877l-5.7,3.325l-7.6,4.75l-7.6,3.325l-1.599,0.685l-0.015-0.075l1.425-1.425l6.65-3.8   l2.375-1.9l2.85-0.95l0.95-0.95l2.85-1.425l0.95-1.9l-2.375,0.475l-7.6,3.8l-9.975,3.325l-4.75-0.475l0.95-2.375l3.8-3.325   l10.45-6.65l2.375-2.375l3.8-2.375l6.65-3.325l7.6-3.325l13.3-4.75l3.1-1.292l2.788-0.744h4.275l2.375-0.95l7.6-3.8l10.925-3.8   l6.65-2.85l1.425-1.425h-3.8l-12.825,4.75l-7.125,1.9l0.95-2.85l-0.173-0.691l0.173-1.209l-0.95-1.425l-4.75,0.95l-10.45,2.85   l-16.626,5.7l-2.887,1.27l3.649-2.085l1.9-1.9l0.95-2.85l1.425-0.475l4.75-2.375l14.25-5.7l4.75-3.325l0.95-2.375h-2.85   l-4.275,1.425l-20.426,6.65l-12.825,5.225l-10.925,3.8l-4.038,2.019l-0.238-0.119l-2.058,1.267l-1.267,0.633l-1.086,0.814   l-1.764,1.086l0.219,0.073l-1.169,0.877l-5.7,3.325l-7.6,4.75l-7.6,3.325l-9.975,4.275l-9.474,3.445l8.237-4.53l10.925-5.225   l15.676-8.075l6.65-4.275l10.45-5.7L708.38,199l7.6-4.75l2.375-2.375l3.8-2.375l1.9-2.375l0.606-1.212l1.106-0.553l10.925-3.8   l6.65-2.85l1.425-1.425h-3.8l-12.825,4.75l-7.125,1.9l0.415-1.244l4.999-2.692l-1.425-0.475l-3.126,1.824l0.088-0.263l-0.173-0.691   l0.173-1.209l-0.95-1.425l-3.612,0.722v-0.383l-1.425,0.475l-0.174,0.261l-9.99,2.725l-16.626,5.7l-11.875,5.225l-17.101,7.6   l-12.35,5.7l-15.676,7.125l-11.875,5.7l-0.271,0.12l1.409-0.731l10.925-5.7l7.6-3.8l14.25-7.6l12.35-5.225l13.3-6.175l8.075-3.8   l1.425-1.425h-2.85l-3.8,1.425l-3.195,1.369l4.432-2.659v-0.95h-1.9l-2.85,0.95l-8.075,3.8l-11.4,5.225l-11.875,5.225l-4.75,1.9   l-5.225,2.375l-16.151,7.6l-7.6,2.85l-2.85,0.475v-0.95h0.95l2.375-1.9l9.5-5.225l10.925-5.225l15.676-8.075l3.788-2.435   l1.151-0.55l9.5-5.225l12.825-6.65l7.6-4.275l14.251-7.125l4.275-2.85l6.175-3.8l4.275-2.85l5.7-3.325l2.85-2.375l5.225-2.85   l2.375-1.9l4.75-2.375l4.275-4.275l0.95-1.9h-2.375l-11.875,3.8l-9.975,4.275l-2.375,1.9l-3.8,1.425l-7.125,3.325l-1.689,1.056   l-0.211-0.106l-1.9,1.425l-2.375,1.425l-1.457,0.662l-0.156-0.052l-0.956,0.558l-2.075,0.943l-4.856,1.214l-5.7,0.475v-0.95   l1.425-1.425l3.8-2.85l9.025-4.75l7.6-3.8l5.225-1.9l8.075-4.275l2.375-1.9l-1.425-0.475l-1.374,0.589l2.136-0.929l8.075-2.85   l8.55-2.85l0.475-1.425h-1.9l-1.9,0.475l-9.975,3.325l-6.175,1.9l-5.7,1.9l-10.45,4.75l-2.944,1.374l-3.518,0.391l-0.95-0.475   l-1.425-1.425l2.375,0.475h2.375l4.275-2.85l6.65-3.325l11.875-5.225l3.8-2.375l4.275-1.425l9.975-4.275l6.175-2.375l9.5-2.85   l9.025-1.425l3.325-0.95l0.95-1.425h-2.375l-4.75,0.95h-5.225l-0.95-0.475v-1.9v-1.425l-4.75-1.9l-0.475-1.425l-1.425-0.475   l-12.825,3.325l-1.425,0.475l0,0l0,0l-8.55,2.85l-0.441,2.205l-1.934,0.645h-4.75l-4.275,1.425h-0.475l-2.375,0.95l-1.505,0.502   l3.216-3.216l0.95-1.9h-2.375l-7.389,2.364l-0.498-0.125l-4.275,1.425l-7.125,0.95l0.475-1.425l4.75-3.8l2.375-2.375l0.333-0.665   l0.143,0.19l0.475-1.425h1.9l4.275-1.425l4.75-2.375l7.125-4.275l3.325-1.425l8.55-3.325l5.225-0.95l2.85-0.95l5.225-1.9   l2.375-2.375l-0.475-3.8l0.95-2.375l-0.95-1.9h-4.275l-0.475,0.475l-9.975,4.75l-5.889,2.944v-0.909v-1.425l-4.75-1.9l-0.475-1.425   l-1.425-0.475l-12.825,3.325l-1.425,0.475l0,0l0,0l-8.55,2.85l-0.441,2.205l-1.934,0.645h-4.75l-4.275,1.425h-0.475l-2.375,0.95   l-2.85,0.95l-0.697-0.174l2.31-1.386l0.475-1.9h-2.375l-0.95,0.95l-1.274,0.51l-0.34-0.849l-1.9-0.475l-4.275,1.425l-5.294,0.706   l3.582-1.791l4.275-1.9l1.267-0.633l2.058-0.792l0.475-0.475l0.95-0.475l-0.38-0.095l0.38-0.38l-1.267,0.158l-0.633-0.158   l-1.9,0.475l-4.75,2.375l-4.072,1.437l3.409-2.727l2.375-2.375l0.333-0.665l0.143,0.19l0.475-1.425h1.9l4.275-1.425l4.75-2.375   l7.125-4.275l3.325-1.425l8.55-3.325l5.225-0.95l2.85-0.95l5.225-1.9l2.375-2.375l-0.475-3.8l0.95-2.375l-0.95-1.9h-4.275   l-0.475,0.475l-9.975,4.75l-7.6,3.8l-7.6,2.85l-10.45,4.75l-5.225,1.425l-6.175,2.85l-5.7,2.85l-2.03,1.249l-9.106,1.469   l0.685-0.343l9.5-4.275l2.375-2.375l-0.95-1.425h-2.375l-1.9,0.475l-11.4,5.7l-1.979,1.188l-7.521,3.563l-6.772,3.386l-3.015,0.754   l-4.275-0.475l-2.85,0.95l-1.701,0.378l4.363-2.618l6.175-3.325l3.325-2.85l5.7-2.85l1.9-1.9l2.375-0.475l1.425-0.95l3.325-0.95   l2.375-1.425l1.9-1.9l2.375-1.425l0.475-1.9h-2.375l-0.95,0.95l-4.75,1.9h-5.225l-1.9,1.425l-1.9,0.475l0.475-2.375l3.8-1.9   l4.275-1.9l1.267-0.633l2.058-0.792l0.475-0.475l0.95-0.475l-0.38-0.095l0.38-0.38l-1.267,0.158l-0.633-0.158l-1.9,0.475   l-4.75,2.375l-8.075,2.85l-4.275,1.9l-0.475,2.375l1.425,0.475l-0.475,1.9l-3.325,0.475v0.264l-0.95,0.211l-4.275,1.9l-3.325,0.95   l0.95-0.95l5.7-2.85l1.9-1.9l-2.375-0.475l-2.85,1.425l-7.125,2.85l-5.225,2.375l-7.6,3.8l-6.175,1.9l0.475-0.95l4.275-1.9   l2.85-1.9l2.375-2.375l-3.325,0.475l-4.275,1.9l-9.5,5.225l-4.275,1.425l-2.375,1.425l-10.145,4.682l-0.305,0.068l-2.787,1.267   l-5.763,2.058l0.143-0.713l0.521-0.372l5.7-3.8l-0.95-0.475l-3.17,1.463l1.082-1.803l1.425-1.425l4.275-2.85l3.325-1.425l7.125-3.8   l4.275-2.375h6.175l4.75-1.9l3.8-1.425l7.125-2.375l11.4-5.7l4.275-1.9l4.275-2.85l4.275-1.9l6.65-3.325l0.475-1.425l-2.85-0.475   l-3.8,1.9l-14.726,2.375l-2.375,1.425l-3.325,0.475l-4.75,1.9l-4.275,0.95l-5.7,1.425l-4.275-0.475l-2.85,0.95l-8.55,1.9   l-4.275,1.425l0.95-2.375l6.175-2.85v-1.425l-0.95-0.475l-2.375,0.475l-3.325,0.95l-0.475,0.95l-2.85,0.95l-1.425,0.95   l-3.325,1.425l-3.8,2.375l-4.275,1.425h-4.275l-3.8,1.425l-4.275,0.95l-1.295,0.648l-0.13-0.173l-2.721,1.555l1.009-0.74   l-1.425-0.475l-1.9,1.425l-3.325,1.425l-5.7,3.8l-2.352,1.085h-6.862l-0.95,0.475l-2.104,0.601l6.092-4.061l10.925-6.175v-0.95   h-1.9l-2.375,0.95l-5.7,3.325l-3.561,1.187l8.122-5.802l5.7-3.8l-0.95-0.475l-6.175,2.85l-4.75,2.85l-6.175,3.325l-6.175,1.9   l-3.8,1.9l-0.95,1.9h-3.325l-6.65,3.8l-1.425,0.95l-2.375,1.425l-1.71,0.855l-4.94,1.52l-4.75,2.85l-4.275,0.95l0.475-2.375   l3.325-0.95l4.75-1.9l3.325-2.85l4.75-2.85l3.8-3.325l3.325-1.425l4.275-2.375v-1.425l-2.375,0.95l-4.275,1.425l-9.025,3.8   l-10.45,5.7l-0.95,1.9h-1.9l-4.75,2.375l-2.85-0.475l0.475-1.425l2.375-1.425l6.65-4.275l1.425-2.375h-3.8l-2.375,0.95l-7.6,3.8   l-4.275,1.425l-9.5,5.225l-6.175,2.375l-4.75,0.95l0.475-0.95l3.8-2.375l7.6-4.275l3.8-2.85l7.125-3.8l4.75-2.375l1.9-1.9   l-3.8,0.475l-4.75,3.325l-3.8,1.425l0.95-1.9l2.375-0.95l3.8-4.275l4.75-2.85l2.85-3.325l1.9-0.475l6.65-3.8l6.175-3.8l7.125-4.75   l10.925-6.175v-0.95h-1.9l-2.375,0.95l-5.7,3.325l-4.275,1.425l-8.075,4.275l-4.75,2.85l-7.6,3.325l-1.425,3.325l-2.375,2.85   l-3.325,0.95l-4.75,3.325l-13.3,6.65l-1.9,1.425l-4.513,3.282l-3.562,1.943l0,0l-5.938,2.771l-4.513,1.504l-1.179,0.688   l-0.721,0.262l0.173,0.058l-0.41,0.239l-0.712,0.178l-2.85,1.9l-2.85,0.475l-2.85-2.375l-0.57,0.19l-0.38-0.19l-0.76,0.57   l-2.565,0.855l-3.8,2.375l-3.8,2.375l-3.8,0.95l-4.275,1.9l-7.6,3.8l-3.167,1.979l-0.158-0.079l-1.9,1.425l-1.425,0.95   l-2.375,1.425l0.09,0.023l-0.677,0.392l-0.364,0.061l-0.163,0.244l-0.579,0.335l-0.209-0.104l-0.475,0.475l-2.692,1.583   l-3.008,1.742l-2.375,1.425l-0.119,0.119l-3.024,1.872l-0.182-0.091l-2.85,1.9l0.035,0.046l-0.823,0.51l-0.162-0.081l-1.018,0.814   l-3.257,2.036l-2.375,1.425l0.053,0.026l-5.278,3.299l-7.6,3.8l-2.85,0.95l-0.475-1.425l0.475-2.85l2.85-2.375l8.55-3.8l5.225-3.8   l3.325-3.8l0.95-2.85l3.325-0.95l6.175-3.8l2.375-1.9l4.75-2.85l3.8-2.85l2.375-2.85l2.85-1.425l2.85-1.9l0.713-1.188l0.713-0.713   l-0.219-0.11l0.219-0.365l-0.528,0.211l-0.422-0.211l-1.425,0.95l-9.025,4.75l-5.225,2.85l-5.7,3.325l-14.251,8.55l-6.175,3.325   l-7.6,3.8l-1.9,2.85l-1.9,2.375l-9.975,4.275l-4.75,1.9l-3.8,2.375l-7.6,3.8l-8.55,5.7l-6.65,3.8l-8.55,3.8l-8.075,4.275   l-4.75,3.325l-6.175,4.275l-3.8,2.85l-0.475,1.9l2.375,0.475l1.9-0.95l8.55-6.175l9.975-4.75l3.325-0.475l-0.475,0.95l-4.75,3.325   l-3.325,4.275l-5.225,4.275l-5.225,3.325l-3.8,2.85l-2.85,1.9l0.124,0.041l-0.26,0.162l-0.814,0.271l-0.228,0.38l-1.039,0.649   l-0.158-0.079l-1.425,0.95l-0.95,0.712l-1.9,1.188l-3.8,3.325l-3.8,3.42l-3.252,1.951l-7.673,3.654l-1.295,0.691l-2.505,1.209   l0.019,0.006l-0.969,0.469l-0.339,0.339L227,204.836l-0.95,0.475l-3.431,2.745l-3.175,2.021l-5.566,2.895l-6.828,3.266   l-0.131,0.082l-0.819,0.393l-0.95,0.712l-0.475,0.238l0.062,0.021l-1.487,0.929l-0.475,0.475l0,0l-3.269,2.012l-5.48,3.014   l-3.564,1.697l-5.262,2.302l-1.425,0.475l-12.35,6.65l-1.663,0.95l-2.612,1.425l-3.325,1.9l-3.325,1.9l0,0l-3.325,1.9l-3.8,2.375   l-4.108,2.934l-0.168-0.084l-2.375,1.9l-1.832,1.425h-0.068l-13.3,10.45l-7.057,5.734l-0.068-0.034l-0.475,0.475l-6.65,4.75   l-0.03,0.148l-0.445,0.327l-0.871,0.475h-0.079l-4.275,2.375l-2.375,2.375l-3.325,1.9l-3.8,3.325l-5.225,4.275l-4.275,3.325   l-3.8,2.85l-8.55,4.275l-6.175,4.275l-4.75,4.275l-2.85,5.7l-3.325,2.85l-4.75,4.275l-0.95,1.9h-0.95l-2.375,1.425l-0.38,0.38   l-1.43,0.92l-0.565,0.126l-3.325,2.375l-4.275,3.8l-6.175,5.7l-0.475,2.375l1.425,0.475l-0.475,2.375l-1.9,1.9l-4.75,4.75   l-3.8,2.85l-4.75,5.225l-0.475,1.9l1.9,0.475l1.9-0.95l3.8-0.475v2.375l-1.425,3.325l-1.9,4.275l-2.375,6.65l-0.95,9.5l-0.95,3.325   l-2.85,4.275l-4.275,4.275l-0.475,1.9h1.9l-0.95,3.325l-0.475,2.375l1.425,0.95l1.9-0.475l1.425-1.425l1.425-2.85l0.95-0.475   l5.7,0.475l4.275,0.95l3.325-1.425l7.6-1.9l-0.475,3.8l-1.9,2.85h1.425l5.225-2.85h2.375h3.595l-0.556,5.565l-0.95,3.325   l-0.123,0.185l-1.49,1.376l-3.695,5.174l-1.816,1.816l-0.475,1.9h1.9l-0.95,3.325l-0.475,2.375l1.425,0.95l1.9-0.475l1.425-1.425   l1.425-2.85l0.95-0.475l5.7,0.475l4.275,0.95l1.979-0.848l3.533-0.442l5.307-1.179l-0.368,2.944l-1.9,2.85h1.425l5.225-2.85h0.15   l-2.714,2.035l-8.55,5.225l-5.225,5.225l-0.475,3.325l3.8,2.85l0.38,0.19l1.045,0.76l0.792,0.158l1.583,0.792l7.125,0.95h7.6   l2.375-0.475l4.275-2.375l0.06-0.007l-1.771,1.771l4.212,0.702l-1.55,1.808l-0.95,3.325l-0.95,1.425l-3.8,5.225l-1.9,1.9   l-3.325,4.75l-0.95,1.9l1.9,0.475l4.275-1.425l3.8-2.375l1.724-0.431l-0.11,0.771l0.154,0.115l-0.342,2.395l0.475,2.375h3.325   l2.71-0.774l1.278,0.639l7.125,0.95h2.031l-1.745,2.035l-2.375,2.375l-3.8,4.75l-2.375,2.375l-0.95,1.9l1.425,0.475l2.101-2.521   l5.024-3.654l0.389-0.302l2.936-2.073l2.375-1.425l3.8-1.9l3.325-0.475l0.475-1.425l1.425-1.425l2.375,0.475l0.252,0.503   l-1.488,1.736l-0.95,3.325l-0.95,1.425l-3.8,5.225l-1.9,1.9l-3.325,4.75l-0.95,1.9l1.9,0.475l4.275-1.425l3.8-2.375l1.208-0.302   l-1.397,1.863l-7.125,4.275l-0.475,1.425h1.9l1.9-0.95l4.75-1.9l-1.341,2.235l-1.826,1.565l-3.483,2.849l-2.376,1.901l-4.75,3.8   l-3.8,3.325l-1.9,2.375l-2.85,2.375l-3.325,3.325l-4.275,3.325l-2.375,1.425l-2.375,3.325l-2.85,3.8l-2.85,2.375l-7.125,6.65   l-5.7,4.275l-0.475,3.325l0.475,0.475h2.85v1.425l-2.375,2.85l-5.225,4.275l-4.75,4.275l0.475,4.75l0.475,4.275l-1.9,3.8   l-3.325,3.325l-3.325,3.8l-5.7,5.7l-4.75,1.425l-2.85,3.325l0.475,1.9v2.375l-0.475,0.475l-0.475,2.375l0.95,0.475l8.55,1.425   l3.8-0.475l2.375,0.475l1.425,1.425l4.275-0.95l5.7-2.85l5.7-5.225l4.75-2.85l-0.475,1.9l-3.325,4.75l-4.275,4.75l-6.175,5.7   l-4.75,7.6l-0.475,2.85h1.9l0.475,4.275l-2.85,3.8l-3.325,3.8l-4.75,3.8l-2.375,2.85l0.95,1.9l2.375,0.475l4.275-3.325l3.8-3.8   l6.175-3.325l3.42-2.66l2.28-1.14l2.44-2.135l6.299,1.05l0.58-0.073l0.035,0.317l-0.258,1.034l-1.97,1.232l-4.275,3.325   l-4.75,5.225l-7.125,4.75l-1.644,1.462l-3.581,2.814l-2.85,2.85l-2.375,2.375l-0.25,0.625l-0.7,0.8l0.173,0.518l-0.173,0.432   l0.356,0.119l0.119,0.356l0.543-0.136l0.407,0.136l0.65-0.4l0.3-0.075l0.285-0.285l4.94-3.04l7.6-3.8l-1.425,2.85v4.275   l-2.375,2.375l-2.85,3.325l-3.325,3.8l-3.8,3.8l0.95,0.475l3.664-3.257l2.986-2.443l0.528-0.475l2.322-1.9l3.8-3.42l1.663-1.33   l1.663-1.108l2.375-0.792l2.375-0.594l6.65-0.831l2.375-0.95l4.275-0.475v1.425l-0.153,0.255l-2.984,3.41l-4.75,3.8l-2.375,2.85   l0.95,1.9l2.375,0.475l4.275-3.325l0.207-0.207l-1.345,2.242l-0.95,4.75l2.375,0.475l1.425-0.95l2.155-0.154l-2.442,1.919   l-2.85,2.85l-2.375,2.375l-0.25,0.625l-0.7,0.8l0.173,0.518l-0.173,0.432l0.356,0.119l0.119,0.356l0.543-0.136l0.407,0.136   l0.65-0.4l0.3-0.075l0.285-0.285l4.94-3.04l7.6-3.8l-1.425,2.85v0.295l-2.089,1.74l-1.9,2.375l-4.75,1.9l-2.375,2.85l1.9,0.95h3.87   l-3.207,3.665l-3.8,3.8l0.95,0.475l3.664-3.257l2.986-2.443l0.528-0.475l2.157-1.765h1.877l1.425,0.475l0.95,2.375l1.425,0.475   h3.325l1.9-0.475l-0.95,3.8l-2.85,3.325l1.9,0.475l2.85-1.425h2.85l3.325,0.95l1.9,1.425l6.65,0.475l3.8,1.425l0.231,0.462   l-0.993,0.827l-1.9,2.375l-4.75,1.9l-2.375,2.85l1.9,0.95h9.025l1.425,0.475l0.95,2.375l1.425,0.475h3.325l1.9-0.475l-0.95,3.8   l-2.85,3.325l1.9,0.475l2.85-1.425h2.85l3.325,0.95l1.055,0.792l-4.569,4.569l-6.65,4.275l-3.325,4.275l-0.475,2.85l1.425,1.425   h8.55l2.85-0.95l4.75-0.95l4.75-1.425l1.9-2.85l3.325-3.8l1.138-0.725v1.539l0.475,1.425l2.094,0.419l-0.857,0.667l-2.85,3.325   h6.175l1.9-0.475l5.7-2.375l7.125-0.95v-0.068l2.85-0.407l4.275-1.425h0.022l-2.208,3.19l-3.325,4.75l-4.275,5.225l-5.7,5.7   l-6.65,4.275l-3.325,4.275l-0.475,2.85l1.425,1.425h8.55l2.85-0.95l4.75-0.95l4.75-1.425l1.9-2.85l3.325-3.8l5.225-3.325   l2.85-3.325l2.375-1.425l-0.95,5.7l-2.375,2.375l-4.275,3.325l-2.85,3.325h6.175l1.9-0.475l5.7-2.375l7.125-0.95v-0.068l2.85-0.407   l4.275-1.425h3.325l0.95,0.95l0.475,4.75l0.475,0.95v0.475l0.475,0.475l3.325-0.475l10.45-4.275l19.001-7.125l14.251-6.175   l10.925-5.7l2.375-1.9l0.475-2.375l-1.425-0.475l-4.75,2.375l-4.275,1.9l-8.075,0.475l-3.8,1.425l-3.8,0.475l0.475-1.425l3.8-3.325   l5.7-5.225l-0.95-4.75l0.95-0.95l10.45-5.7l2.375-2.85l6.175-0.475l4.75-3.8l2.85-0.475l1.425,1.9l1.9,0.475l3.325-2.375l7.125-3.8   l0.95-0.475l2.375-1.663l2.681-1.724l3.364-0.673l7.255-0.691l2.85-0.95l3.8-0.95l-0.475,2.85l0.142,0.57l-0.142,0.855l0.375,0.075   l0.1,0.4l1.372-0.106l0.528,0.106l0.345-0.173l3.93-0.302l1.9-0.95l0.95-2.85l2.85-0.95l2.85-1.9l0.475-2.375h-1.425l-0.95,1.9   l-7.6-0.475v-1.425l1.9-1.425l-0.073-0.036l0.548-0.438l4.75-2.375l0,0l1.9-0.95l6.65-4.275l5.7-3.8l4.75-3.325l9.025-1.9   l0.393-0.147l1.507-0.328l3.563-1.425h0.713l0.475-0.475l3.8-0.95l1.9-0.95l0,0l0.95-0.475l-0.102-0.034l3.902-2.341l2.375-0.95   l2.85-1.425l0.741-0.57l0.684-0.38l0.304-0.38l2.014-1.549l0.058,0.029l2.375-1.9l2.85-0.95l0,0l1.425-0.475l1.544-0.713   l1.781-0.713l4.275-1.9l-0.061-0.122l0.881-0.386l0.13,0.032l0.035-0.104l0.884-0.387l0.032,0.016l0.475-0.237l3.8-1.663   l1.425-0.95l0.95-0.475l-0.173-0.043l2.073-1.382l5.225-2.85l3.8-3.325l0.95-3.8l7.6-3.8h3.325l0.95-1.425l3.1-1.938l0.225,0.037   l2.137-1.425l4.988-2.85l3.8-2.85l4.275-1.425l-0.095-0.095l0.517-0.222l0.528-0.158l0.396-0.237l0.554-0.238l0.747-0.543   l0.678-0.407l0.049-0.122l0.655-0.476l0.246,0.123l1.71-1.425l6.84-4.275l5.7-3.325l4.275-0.95l1.065-0.41l0.36-0.065l0.259-0.173   l1.891-0.727l0.225-0.05l2.375-0.95l4.75-0.95l4.75-2.375l4.75-1.9h4.75l2.85-1.425l1.663-1.188l2.612-1.662l0.712-0.712   l1.663-1.188l0.873-0.462l0.077-0.013l7.125-3.8l7.6-3.8l1.425-0.95l2.85-1.9l0.95-3.325l1.425-0.95l5.225-3.8l5.225-0.95   L554,559.063l7.125-3.8l8.55-4.75l7.6-3.8l10.925-5.7l5.225-3.325l0.95-1.9h-2.375l-2.375,0.95l-3.8,1.9l-5.225,2.375l-6.65,2.85   l-6.175,1.9l-9.025,3.325l-4.75,0.95l-0.475-1.9h-0.95l-1.9,0.95l-4.276,2.376l-4.511,2.461l-4.988,1.814l0.021,0.064l-5.247,1.836   l-8.075,3.8l-0.95,0.475l-6.65,3.325l-2.443,1.018l-3.732,1.357l-2.375-0.95l0.475-2.375l2.065-2.478l3.635-2.272l0.346-0.302   l1.08-0.648l1.018-1.188l1.357-1.188l5.225-3.325l8.55-3.8l11.4-4.75l2.375-1.188l2.85-1.188l9.975-5.225l0.95-0.475h0l6.651-3.326   l15.24-7.402l0.435-0.198l0.043-0.034l0.907-0.44l9.5-4.275l11.875-6.175l5.7-4.275l2.375-1.9l5.225-3.325l2.375-1.9l5.7-2.375   l4.275-2.85l4.275-3.325l1.9-2.375l3.325-2.375l2.375-2.85l9.5-5.225l10.925-5.225l9.025-4.75l8.075-3.8l10.925-5.225l5.7-4.275   l-0.95-4.275l-1.9-1.425l-5.7-0.475l-0.95-1.425l-3.325-0.475l-0.475-0.475l0.95-2.85l9.025-5.7l7.125-4.75l6.175-3.8l8.075-4.275   v-1.425l-3.325-0.95l-0.95-0.95l-3.325,0.475l-14.726,6.65l-21.376,10.925l-18.526,9.025l-10.925,4.75l-7.125,2.375l-9.025,3.325   l-9.025,4.275l-6.175,2.85l-5,2.084l0.062-0.048l1.9-2.375l3.325-2.375l2.375-2.85l9.5-5.225l10.925-5.225l9.025-4.75l8.075-3.8   l10.925-5.225l5.7-4.275l-0.95-4.275l-1.9-1.425l-5.7-0.475l-0.332-0.498l6.221-2.962l5.225-3.325l3.8-1.9l1.425-1.425l6.65-3.8   l2.85-2.375l0.193-0.515l0.282,0.04l0.183-1.279l0.767-2.046l8.075-4.75l1.425-3.325l1.425-2.375l9.5-4.75l14.726-5.7l7.125-2.85   l8.075-2.375l9.975-3.325l11.875-3.325l5.225-0.95l6.175-1.9l11.875-2.375l5.225-2.85v-1.9H781.533z M625.539,77.848l3.8-1.267   v0.95l-1.425,0.95h-2.375V77.848z M103.97,639.951l0.13,0.065l-1.555,1.36l-0.804,0.742l-3.38,2.629l-0.091-0.046l-0.475,0.475   l-1.679,1.919l-0.615,0.676l-1.141,0.913l-0.365-0.183l-2.375,1.9l-4.75,2.375l0.475-2.375l0,0l1.425-1.425l5.225-4.275l3.8-3.8   l5.225-3.8l1.19-0.149l0.267,2.407L103.97,639.951z M677.504,228.451l-7.363,3.347l3.375-1.787l6.175-3.325l4.75-1.9l2.868-0.86   L677.504,228.451z M611.002,231.301l-0.124-0.01l1.21-0.504L611.002,231.301z M610.338,84.181l1.425,0.475l-1.9,0.475   L610.338,84.181z M538.719,82.173l-1.058,1.058l4.275-0.475l-0.475,0.95l-2.85,0.475l-4.275,1.9l-1.543,0.386l0.782-0.521   L538.719,82.173z M503.934,90.832l4.75-1.9l-0.07,0.21l-2.592,1.555l-7.463,3.265l2.05-1.23L503.934,90.832z M464.983,114.108   l6.175-3.8l2.375-1.9l3.8-1.9l6.65-3.8l5.7-3.325l0.29-0.871l0.185-0.079l5.7-2.85l2.551-1.53l-1.412,3.295l-2.375,2.85   l-3.325,0.95l-4.75,3.325l-13.3,6.65l-1.9,1.425l-4.513,3.282l-3.562,1.943l0,0l-5.938,2.771l-4.513,1.504l-1.179,0.688   l-0.721,0.262l0.173,0.058l-0.41,0.239l-0.712,0.178l-2.85,1.9l-2.85,0.475l-2.391-1.992l0.302-0.247l8.075-2.85l7.125-2.375   l2.85-1.9L464.983,114.108z"/>
	<polygon points="748.282,160.049 756.357,157.199 764.907,154.349 765.382,152.924 763.482,152.924 761.582,153.399    751.607,156.724 745.431,158.624 739.731,160.524 729.281,165.274 722.156,168.599 718.356,170.024 714.555,171.924    712.655,173.824 715.03,173.824 718.831,171.924 718.831,171.924 719.781,171.449 737.356,164.799  "/>
	<polygon points="69.482,664.042 69.482,658.817 68.532,658.817 67.582,659.292 59.982,666.892 59.507,669.267 61.407,669.742    67.582,666.417  "/>
	<polygon points="733.556,155.299 742.581,151.023 743.056,149.598 741.631,149.598 738.306,150.548 733.556,152.924    729.756,154.349 723.106,157.674 719.306,160.524 720.731,160.999 726.431,158.149  "/>
	<polygon points="712.655,112.072 715.98,112.072 722.156,109.222 727.381,105.897 728.331,103.997 726.906,103.997    723.581,104.947 715.98,108.747 712.655,110.647  "/>
	<polygon points="68.057,686.368 59.507,693.018 54.282,697.293 54.282,698.718 56.657,698.243 62.832,693.493 70.433,685.893    69.482,685.418  "/>
	<polygon points="340.242,674.017 339.767,675.442 338.817,675.442 335.967,676.867 336.442,678.767 339.767,678.292    339.767,675.917 343.092,675.917 344.042,675.442 344.042,674.017 342.142,673.067  "/>
	<polygon points="354.018,665.942 353.068,667.842 351.167,667.842 350.692,669.267 352.118,669.742 352.593,668.317    354.968,667.842 356.393,666.417 356.868,664.517 355.918,664.517  "/>
	<polygon points="747.807,125.848 746.857,125.848 744.481,126.798 743.056,128.223 746.857,127.748  "/>
	<polygon points="731.181,103.047 732.606,103.522 735.456,101.622 735.456,100.672 734.506,100.672 731.656,101.622  "/>
	<polygon points="693.655,175.249 697.455,172.874 696.03,172.399 692.705,174.774  "/>
	<polygon points="748.282,324.405 748.757,325.355 751.132,324.88 752.557,323.455 750.182,323.455  "/>
	<polygon points="765.857,319.179 768.232,318.229 768.232,317.279 766.807,317.279 763.957,318.704  "/>
	<polygon points="702.68,169.074 704.105,169.549 706.955,167.649 706.005,167.174 704.58,167.649  "/>
	<polygon points="744.006,326.78 745.907,325.83 744.006,325.355 742.581,326.305  "/>
	<polygon points="740.206,328.205 738.781,327.73 738.306,328.68  "/>
	<polygon points="733.081,173.824 731.656,173.349 731.181,174.299  "/>
	<rect x="346.892" y="671.167" width="0.95" height="0.95"/>
	<polygon points="135.796,236.187 143.397,230.487 146.247,228.587 148.147,226.687 150.997,224.786 157.647,220.986    164.297,216.236 168.098,212.911 171.423,209.111 173.798,207.686 181.398,203.886 183.773,201.511 182.348,201.036    174.748,204.836 170.473,207.686 162.872,212.911 154.797,219.086 150.522,221.936 145.297,225.736 135.796,233.337    132.471,236.187 131.521,238.087 132.946,238.087  "/>
	<polygon points="486.359,69.931 480.184,74.681 477.334,76.106 472.583,78.956 472.108,80.381 475.909,79.906 479.709,77.056    484.934,74.206 489.209,71.831 498.234,67.081 503.934,63.281 511.06,58.056 509.635,57.58 507.735,59.006 504.409,60.431    498.709,64.231  "/>
	<polygon points="93.52,494.596 92.57,496.496 94.47,496.496 96.845,494.596 99.695,490.796 103.02,486.521 106.345,485.571    110.145,484.146 112.521,481.296 112.996,478.92 111.096,478.445 110.145,478.92 103.97,484.146 94.945,488.421 93.995,490.321    97.32,489.846 96.845,490.796  "/>
	<polygon points="39.843,641.376 39.843,636.151 38.893,636.151 37.943,636.626 30.343,644.226 29.868,646.601 31.768,647.076    37.943,643.751  "/>
	<polygon points="693.941,82.281 686.341,86.081 683.016,87.982 683.016,89.407 686.341,89.407 692.516,86.557 697.741,83.231    698.691,81.331 697.266,81.331  "/>
	<polygon points="38.418,663.702 29.868,670.352 24.642,674.627 24.642,676.052 27.018,675.577 33.193,670.827 40.793,663.227    39.843,662.752  "/>
	<polygon points="80.219,506.946 84.02,502.671 84.97,500.771 83.545,500.771 81.644,502.196 77.844,505.996 72.619,510.272    69.769,513.597 74.044,512.172 76.419,509.322  "/>
	<polygon points="420.332,82.756 418.431,82.281 411.781,85.131 410.831,87.032 415.106,86.081  "/>
	<polygon points="373.305,115.058 373.305,116.008 377.58,115.058 380.43,112.682 379.955,111.257 378.055,111.732  "/>
	<polygon points="399.431,94.157 404.656,90.357 403.706,89.882 400.856,91.307 395.631,95.107 396.581,95.582  "/>
	<polygon points="426.982,79.906 429.832,78.006 428.882,77.531 427.457,78.006 422.232,80.381 420.332,82.281 422.707,81.806  "/>
	<polygon points="119.646,470.845 117.271,469.895 116.321,471.795 115.846,473.695 117.271,473.695 118.696,472.745  "/>
	<polygon points="477.809,87.032 481.134,86.081 483.509,84.181 482.084,83.706 478.759,85.131  "/>
	<polygon points="117.271,254.237 115.371,253.762 112.996,255.663 113.471,257.088  "/>
	<polygon points="718.167,103.182 717.217,103.182 714.842,104.132 713.417,105.557 717.217,105.082  "/>
	<polygon points="701.542,80.381 702.967,80.856 705.817,78.956 705.817,78.006 704.867,78.006 702.017,78.956  "/>
	<polygon points="72.144,528.322 76.419,524.997 76.419,524.047 75.469,524.047 72.144,526.897  "/>
	<polygon points="719.117,302.689 721.492,302.214 722.917,300.789 720.542,300.789 718.642,301.739  "/>
	<polygon points="734.318,296.039 736.218,296.514 738.593,295.564 738.593,294.614 737.168,294.614  "/>
	<polygon points="392.306,97.007 390.88,97.007 388.98,98.907 391.831,98.432  "/>
	<polygon points="62.169,543.048 61.219,544.948 62.644,544.948 63.594,543.048  "/>
	<polygon points="407.981,88.457 406.081,87.982 404.656,89.407 405.606,89.882  "/>
	<polygon points="685.391,157.334 687.766,156.859 687.766,155.434 686.341,155.909  "/>
	<polygon points="433.157,76.106 431.732,76.106 431.257,77.531 433.157,77.056  "/>
	<polygon points="584.687,63.756 583.262,63.756 583.262,64.706 584.212,65.181  "/>
	<polygon points="570.437,54.255 569.487,53.78 568.062,54.73 569.487,55.205  "/>
	<polygon points="703.442,151.159 702.017,150.684 701.542,151.634  "/>
	<rect x="103.02" y="266.113" width="0.95" height="0.95"/>
</g>
</svg>