<svg xmlns="http://www.w3.org/2000/svg" width="1024" height="445" viewBox="-0.84 -0.84 68.268 29.68">
    <path fill="#9e9e9e" d="M25.113 9.45c0-2.45-1.663-4.287-4.025-4.287-2.363 0-4.026 1.837-4.026 4.287s1.663 4.287 4.025 4.287c2.363 0 4.025-1.837 4.025-4.287zm5.425 0c0 5.21-4.24 9.45-9.45 9.45-5.211 0-9.45-4.24-9.45-9.45 0-5.21 4.239-9.45 9.45-9.45 5.21 0 9.45 4.24 9.45 9.45zM0 .525v5.162h4.638v14.175c0 1.576-.875 2.976-2.625 2.976H0V28h2.013c4.724 0 8.05-3.719 8.05-8.269V.525H0ZM60.462 0c-1.573 0-3.301.442-4.55 1.99V.525h-5.424v17.85h5.425V8.225c0-1.663.875-3.063 2.616-3.063 1.758 0 2.633 1.4 2.633 2.975v10.238h5.426V7c0-4.463-2.45-7-6.125-7zM42.787.525h5.425v19.206c0 4.55-3.325 8.269-8.05 8.269-4.637 0-8.05-3.675-8.05-7.7h5.425c.088 1.4 1.138 2.538 2.625 2.538 1.75 0 2.625-1.4 2.625-2.975V16.91c-1.248 1.548-2.976 1.99-4.55 1.99-3.675 0-6.125-2.538-6.125-7V.525h5.425v10.237c0 1.575.875 2.975 2.634 2.975 1.741 0 2.616-1.4 2.616-3.062V.525z"/>
</svg>
