<svg xmlns="http://www.w3.org/2000/svg" version="1.0" id="Layer_1" x="0" y="0" width="160" height="24" style="enable-background:new 0 0 621.4 434.5" xml:space="preserve" viewBox="70 181 481.4 72.5">
    <path fill="#9e9e9e" d="M198.9 181H70v72.5h128.9V181z"/>
    <path fill="#9e9e9e" d="M340.6 181H211.8v72.5h128.9V181z"/>
    <path fill="#9e9e9e" d="M482.4 181H353.5v72.5h128.9V181z"/>
    <path  d="M106.8 197.7h34.3c10.5 0 16.3 4.7 16.3 12.6 0 6.8-4.4 11.3-11.8 12.4l16.8 14.2h-12.9l-15.8-13.7h-18v13.7h-8.9v-39.2zm33.2 18.1c5.5 0 8.2-1.8 8.2-5.4s-2.7-5.4-8.2-5.4h-24.2v10.8H140zM393.7 197.7h8.9v31.4h39.8v7.7h-48.7zM271.7 205.4H249v-7.7h54.3v7.7h-22.7v31.4h-8.9z"/>
    <path fill="#9e9e9e" d="M522.7 197.6v15.2h-20v8.8h20v15.3h8.7v-15.3h20v-8.8h-20v-15.2z"/>
</svg>